# xmcd
#
# Track frame offsets:
#	150
#	19213
#	46064
#	70937
#	92228
#	107445
#	126435
#	148332
#	175603
#	199579
#	218479
#	237870
#	260618
#	279166
#	301130
#
# Disc length: 4439 seconds
#
# Revision: 4
# Processed by: cddbd v1.5.2PL0 Copyright (c) Steve Scherf et al.
# Submitted via: EZCDAudioConverter 1.0.4.1
#
DISCID=ce11550f
DTITLE=Elton John and Billy Joel - The Piano Men
DYEAR=2009
DGENRE=Pop
TTITLE0=Your Song
TTITLE1=Don't Let the Sun Go Down On Me
TTITLE2=Angry Young Man
TTITLE3=The Stranger
TTITLE4=Just The Way You Are
TTITLE5=Allentown
TTITLE6=I Go To Extremes
TTITLE7=My Life
TTITLE8=The River Of Dreams
TTITLE9=Candle In The Wind
TTITLE10=It's Still Rock And Roll To Me
TTITLE11=Big Shot
TTITLE12=The Bitch Is Back
TTITLE13=You May Be Right
TTITLE14=Piano Man
EXTD=
EXTT0=
EXTT1=
EXTT2=
EXTT3=
EXTT4=
EXTT5=
EXTT6=
EXTT7=
EXTT8=
EXTT9=
EXTT10=
EXTT11=
EXTT12=
EXTT13=
EXTT14=
PLAYORDER=
